<svg xmlns="http://www.w3.org/2000/svg" xmlns:xlink="http://www.w3.org/1999/xlink" width="600" zoomAndPan="magnify" viewBox="0 0 450 149.999998" height="200" preserveAspectRatio="xMidYMid meet" version="1.0"><defs><g/></defs><g fill="#ec00ff" fill-opacity="0.302"><g transform="translate(15.480631, 122.630609)"><g><path d="M 5.046875 -48.5 C 5.046875 -49.75 5.15625 -50.859375 5.375 -51.828125 C 5.59375 -52.796875 6.007812 -53.585938 6.625 -54.203125 C 7.25 -54.828125 8.109375 -55.300781 9.203125 -55.625 C 10.304688 -55.957031 11.734375 -56.125 13.484375 -56.125 L 37.484375 -56.125 C 39.171875 -56.125 40.535156 -55.96875 41.578125 -55.65625 C 42.617188 -55.34375 43.429688 -54.875 44.015625 -54.25 C 44.597656 -53.632812 44.976562 -52.851562 45.15625 -51.90625 C 45.34375 -50.957031 45.4375 -49.820312 45.4375 -48.5 L 45.4375 -7.515625 C 45.4375 -6.265625 45.34375 -5.171875 45.15625 -4.234375 C 44.976562 -3.304688 44.597656 -2.523438 44.015625 -1.890625 C 43.429688 -1.253906 42.617188 -0.78125 41.578125 -0.46875 C 40.535156 -0.15625 39.171875 0 37.484375 0 L 13.484375 0 C 11.734375 0 10.304688 -0.160156 9.203125 -0.484375 C 8.109375 -0.816406 7.25 -1.289062 6.625 -1.90625 C 6.007812 -2.53125 5.59375 -3.316406 5.375 -4.265625 C 5.15625 -5.222656 5.046875 -6.34375 5.046875 -7.625 Z M 7.078125 -79.578125 C 7.078125 -82.097656 7.554688 -84.472656 8.515625 -86.703125 C 9.484375 -88.929688 10.789062 -90.867188 12.4375 -92.515625 C 14.082031 -94.160156 16.019531 -95.46875 18.25 -96.4375 C 20.476562 -97.40625 22.851562 -97.890625 25.375 -97.890625 C 27.863281 -97.890625 30.210938 -97.40625 32.421875 -96.4375 C 34.628906 -95.46875 36.554688 -94.160156 38.203125 -92.515625 C 39.847656 -90.867188 41.15625 -88.929688 42.125 -86.703125 C 43.09375 -84.472656 43.578125 -82.097656 43.578125 -79.578125 C 43.578125 -77.097656 43.09375 -74.75 42.125 -72.53125 C 41.15625 -70.320312 39.847656 -68.394531 38.203125 -66.75 C 36.554688 -65.113281 34.628906 -63.8125 32.421875 -62.84375 C 30.210938 -61.875 27.863281 -61.390625 25.375 -61.390625 C 22.851562 -61.390625 20.476562 -61.875 18.25 -62.84375 C 16.019531 -63.8125 14.082031 -65.113281 12.4375 -66.75 C 10.789062 -68.394531 9.484375 -70.320312 8.515625 -72.53125 C 7.554688 -74.75 7.078125 -77.097656 7.078125 -79.578125 Z M 7.078125 -79.578125 "/></g></g></g><g fill="#ec00ff" fill-opacity="0.302"><g transform="translate(65.956729, 122.630609)"><g><path d="M 5.046875 -48.5 C 5.046875 -49.75 5.15625 -50.859375 5.375 -51.828125 C 5.59375 -52.796875 6.007812 -53.585938 6.625 -54.203125 C 7.25 -54.828125 8.109375 -55.300781 9.203125 -55.625 C 10.304688 -55.957031 11.734375 -56.125 13.484375 -56.125 L 35.90625 -56.125 C 37.539062 -56.125 38.953125 -55.957031 40.140625 -55.625 C 41.328125 -55.300781 42.179688 -54.738281 42.703125 -53.9375 C 43.171875 -54.257812 43.742188 -54.613281 44.421875 -55 C 45.097656 -55.382812 45.835938 -55.738281 46.640625 -56.0625 C 47.441406 -56.394531 48.300781 -56.671875 49.21875 -56.890625 C 50.132812 -57.109375 51.082031 -57.21875 52.0625 -57.21875 C 55.570312 -57.21875 58.304688 -56.007812 60.265625 -53.59375 C 62.222656 -51.1875 63.203125 -47.644531 63.203125 -42.96875 L 63.203125 -2.578125 C 63.203125 -1.953125 63.117188 -1.46875 62.953125 -1.125 C 62.785156 -0.78125 62.582031 -0.523438 62.34375 -0.359375 C 62.101562 -0.191406 61.816406 -0.0859375 61.484375 -0.046875 C 61.160156 -0.015625 60.835938 0 60.515625 0 L 57 0 C 56.050781 0 55.4375 -0.269531 55.15625 -0.8125 C 54.882812 -1.363281 54.75 -1.953125 54.75 -2.578125 L 54.75 -43.515625 C 54.75 -45.597656 54.375 -47.1875 53.625 -48.28125 C 52.875 -49.382812 51.679688 -49.9375 50.046875 -49.9375 C 49.203125 -49.9375 48.347656 -49.707031 47.484375 -49.25 C 46.628906 -48.789062 45.945312 -48.304688 45.4375 -47.796875 L 45.4375 -7.671875 C 45.4375 -6.390625 45.328125 -5.273438 45.109375 -4.328125 C 44.890625 -3.378906 44.46875 -2.582031 43.84375 -1.9375 C 43.226562 -1.300781 42.367188 -0.816406 41.265625 -0.484375 C 40.171875 -0.160156 38.75 0 37 0 L 13.484375 0 C 11.734375 0 10.304688 -0.160156 9.203125 -0.484375 C 8.109375 -0.816406 7.25 -1.289062 6.625 -1.90625 C 6.007812 -2.53125 5.59375 -3.316406 5.375 -4.265625 C 5.15625 -5.222656 5.046875 -6.34375 5.046875 -7.625 Z M 5.046875 -48.5 "/></g></g></g><g fill="#ec00ff" fill-opacity="0.302"><g transform="translate(134.18989, 122.630609)"><g><path d="M 44.015625 -32.34375 L 51.625 -52.890625 C 51.957031 -53.835938 52.316406 -54.613281 52.703125 -55.21875 C 53.085938 -55.820312 53.863281 -56.125 55.03125 -56.125 L 60.84375 -56.125 C 61.894531 -56.125 62.421875 -55.8125 62.421875 -55.1875 C 62.421875 -54.789062 62.222656 -54.132812 61.828125 -53.21875 L 40.828125 -3.734375 C 40.316406 -2.484375 39.738281 -1.546875 39.09375 -0.921875 C 38.457031 -0.304688 37.554688 0 36.390625 0 L 27.734375 0 C 26.960938 0 26.320312 -0.117188 25.8125 -0.359375 C 25.300781 -0.597656 24.867188 -0.898438 24.515625 -1.265625 C 24.171875 -1.628906 23.890625 -2.019531 23.671875 -2.4375 C 23.453125 -2.851562 23.269531 -3.25 23.125 -3.625 L 0.546875 -51.515625 C 0.222656 -52.210938 0.0625 -52.851562 0.0625 -53.4375 C 0.0625 -54.382812 0.40625 -55.066406 1.09375 -55.484375 C 1.789062 -55.910156 2.503906 -56.125 3.234375 -56.125 L 29.984375 -56.125 C 30.890625 -56.125 31.65625 -56.085938 32.28125 -56.015625 C 32.90625 -55.941406 33.414062 -55.800781 33.8125 -55.59375 C 34.21875 -55.394531 34.546875 -55.148438 34.796875 -54.859375 C 35.054688 -54.566406 35.28125 -54.203125 35.46875 -53.765625 Z M 44.015625 -32.34375 "/></g></g></g><g fill="#ec00ff" fill-opacity="0.302"><g transform="translate(196.668448, 122.630609)"><g><path d="M 5.046875 -48.5 C 5.046875 -49.75 5.15625 -50.859375 5.375 -51.828125 C 5.59375 -52.796875 6.007812 -53.585938 6.625 -54.203125 C 7.25 -54.828125 8.109375 -55.300781 9.203125 -55.625 C 10.304688 -55.957031 11.734375 -56.125 13.484375 -56.125 L 37.484375 -56.125 C 39.171875 -56.125 40.535156 -55.96875 41.578125 -55.65625 C 42.617188 -55.34375 43.429688 -54.875 44.015625 -54.25 C 44.597656 -53.632812 44.976562 -52.851562 45.15625 -51.90625 C 45.34375 -50.957031 45.4375 -49.820312 45.4375 -48.5 L 45.4375 -7.515625 C 45.4375 -6.265625 45.34375 -5.171875 45.15625 -4.234375 C 44.976562 -3.304688 44.597656 -2.523438 44.015625 -1.890625 C 43.429688 -1.253906 42.617188 -0.78125 41.578125 -0.46875 C 40.535156 -0.15625 39.171875 0 37.484375 0 L 13.484375 0 C 11.734375 0 10.304688 -0.160156 9.203125 -0.484375 C 8.109375 -0.816406 7.25 -1.289062 6.625 -1.90625 C 6.007812 -2.53125 5.59375 -3.316406 5.375 -4.265625 C 5.15625 -5.222656 5.046875 -6.34375 5.046875 -7.625 Z M 7.078125 -79.578125 C 7.078125 -82.097656 7.554688 -84.472656 8.515625 -86.703125 C 9.484375 -88.929688 10.789062 -90.867188 12.4375 -92.515625 C 14.082031 -94.160156 16.019531 -95.46875 18.25 -96.4375 C 20.476562 -97.40625 22.851562 -97.890625 25.375 -97.890625 C 27.863281 -97.890625 30.210938 -97.40625 32.421875 -96.4375 C 34.628906 -95.46875 36.554688 -94.160156 38.203125 -92.515625 C 39.847656 -90.867188 41.15625 -88.929688 42.125 -86.703125 C 43.09375 -84.472656 43.578125 -82.097656 43.578125 -79.578125 C 43.578125 -77.097656 43.09375 -74.75 42.125 -72.53125 C 41.15625 -70.320312 39.847656 -68.394531 38.203125 -66.75 C 36.554688 -65.113281 34.628906 -63.8125 32.421875 -62.84375 C 30.210938 -61.875 27.863281 -61.390625 25.375 -61.390625 C 22.851562 -61.390625 20.476562 -61.875 18.25 -62.84375 C 16.019531 -63.8125 14.082031 -65.113281 12.4375 -66.75 C 10.789062 -68.394531 9.484375 -70.320312 8.515625 -72.53125 C 7.554688 -74.75 7.078125 -77.097656 7.078125 -79.578125 Z M 7.078125 -79.578125 "/></g></g></g><g fill="#ec00ff" fill-opacity="0.302"><g transform="translate(247.144558, 122.630609)"><g><path d="M 1.15625 -38.140625 C 0.382812 -38.140625 0 -38.546875 0 -39.359375 L 0 -43.734375 C 0 -44.503906 0.382812 -44.890625 1.15625 -44.890625 L 6.84375 -44.890625 L 6.84375 -57.328125 C 6.84375 -57.878906 6.925781 -58.425781 7.09375 -58.96875 C 7.257812 -59.519531 7.707031 -59.941406 8.4375 -60.234375 L 38.703125 -71.421875 C 40.085938 -71.929688 41.234375 -72.3125 42.140625 -72.5625 C 43.054688 -72.820312 43.863281 -72.953125 44.5625 -72.953125 C 44.8125 -72.953125 45.09375 -72.90625 45.40625 -72.8125 C 45.71875 -72.71875 46.007812 -72.5625 46.28125 -72.34375 C 46.5625 -72.125 46.789062 -71.820312 46.96875 -71.4375 C 47.15625 -71.0625 47.25 -70.597656 47.25 -70.046875 L 47.25 -44.890625 L 57.109375 -44.890625 C 57.878906 -44.890625 58.265625 -44.503906 58.265625 -43.734375 L 58.265625 -39.359375 C 58.265625 -38.546875 57.878906 -38.140625 57.109375 -38.140625 L 47.25 -38.140625 L 47.25 -16.0625 C 47.25 -13.46875 47.675781 -11.640625 48.53125 -10.578125 C 49.394531 -9.515625 50.71875 -8.984375 52.5 -8.984375 C 52.90625 -8.984375 53.328125 -9.03125 53.765625 -9.125 C 54.203125 -9.21875 54.613281 -9.304688 55 -9.390625 C 55.382812 -9.484375 55.738281 -9.578125 56.0625 -9.671875 C 56.394531 -9.765625 56.671875 -9.8125 56.890625 -9.8125 C 57.296875 -9.8125 57.5 -9.570312 57.5 -9.09375 L 57.5 -4.875 C 57.5 -4.144531 57.351562 -3.648438 57.0625 -3.390625 C 56.769531 -3.140625 56.515625 -2.976562 56.296875 -2.90625 C 54.898438 -2.320312 53.257812 -1.738281 51.375 -1.15625 C 49.5 -0.570312 47.472656 -0.0507812 45.296875 0.40625 C 43.117188 0.863281 40.820312 1.226562 38.40625 1.5 C 36 1.78125 33.59375 1.921875 31.1875 1.921875 C 27.71875 1.921875 24.492188 1.742188 21.515625 1.390625 C 18.535156 1.046875 15.957031 0.253906 13.78125 -0.984375 C 11.613281 -2.222656 9.914062 -4.066406 8.6875 -6.515625 C 7.457031 -8.960938 6.84375 -12.289062 6.84375 -16.5 L 6.84375 -38.140625 Z M 1.15625 -38.140625 "/></g></g></g><g fill="#ec00ff" fill-opacity="0.302"><g transform="translate(308.746223, 122.630609)"><g><path d="M 54.703125 -9.09375 C 55.691406 -9.09375 56.585938 -9.226562 57.390625 -9.5 C 58.191406 -9.78125 58.910156 -10.082031 59.546875 -10.40625 C 60.191406 -10.738281 60.722656 -11.039062 61.140625 -11.3125 C 61.554688 -11.59375 61.875 -11.734375 62.09375 -11.734375 C 62.425781 -11.734375 62.65625 -11.675781 62.78125 -11.5625 C 62.90625 -11.457031 63.0625 -11.257812 63.25 -10.96875 L 65.171875 -8 C 65.347656 -7.707031 65.4375 -7.453125 65.4375 -7.234375 C 65.4375 -6.972656 65.363281 -6.769531 65.21875 -6.625 C 65.070312 -6.476562 64.925781 -6.351562 64.78125 -6.25 C 63.570312 -5.40625 62.09375 -4.5 60.34375 -3.53125 C 58.59375 -2.5625 56.554688 -1.675781 54.234375 -0.875 C 51.910156 -0.0703125 49.285156 0.59375 46.359375 1.125 C 43.441406 1.65625 40.226562 1.921875 36.71875 1.921875 C 33.976562 1.921875 31.238281 1.703125 28.5 1.265625 C 25.757812 0.828125 23.132812 0.132812 20.625 -0.8125 C 18.125 -1.769531 15.796875 -3.015625 13.640625 -4.546875 C 11.484375 -6.078125 9.609375 -7.957031 8.015625 -10.1875 C 6.429688 -12.414062 5.179688 -15 4.265625 -17.9375 C 3.359375 -20.882812 2.90625 -24.257812 2.90625 -28.0625 C 2.90625 -31.789062 3.359375 -35.125 4.265625 -38.0625 C 5.179688 -41.007812 6.429688 -43.597656 8.015625 -45.828125 C 9.609375 -48.054688 11.484375 -49.945312 13.640625 -51.5 C 15.796875 -53.050781 18.125 -54.3125 20.625 -55.28125 C 23.132812 -56.25 25.757812 -56.953125 28.5 -57.390625 C 31.238281 -57.828125 33.976562 -58.046875 36.71875 -58.046875 C 41.289062 -58.046875 45.539062 -57.53125 49.46875 -56.5 C 53.394531 -55.476562 56.800781 -53.796875 59.6875 -51.453125 C 62.570312 -49.117188 64.835938 -46.050781 66.484375 -42.25 C 68.128906 -38.457031 68.953125 -33.800781 68.953125 -28.28125 L 68.953125 -25.21875 C 68.953125 -24.550781 68.785156 -24.035156 68.453125 -23.671875 C 68.128906 -23.304688 67.582031 -23.125 66.8125 -23.125 L 44.125 -23.125 C 44.414062 -20.425781 44.9375 -18.171875 45.6875 -16.359375 C 46.4375 -14.546875 47.296875 -13.097656 48.265625 -12.015625 C 49.234375 -10.941406 50.28125 -10.1875 51.40625 -9.75 C 52.539062 -9.3125 53.640625 -9.09375 54.703125 -9.09375 Z M 61.171875 -29.875 C 61.171875 -32.789062 60.941406 -35.207031 60.484375 -37.125 C 60.023438 -39.050781 59.410156 -40.585938 58.640625 -41.734375 C 57.878906 -42.890625 56.976562 -43.703125 55.9375 -44.171875 C 54.894531 -44.648438 53.804688 -44.890625 52.671875 -44.890625 C 51.828125 -44.890625 50.910156 -44.722656 49.921875 -44.390625 C 48.941406 -44.066406 48.019531 -43.375 47.15625 -42.3125 C 46.300781 -41.25 45.570312 -39.726562 44.96875 -37.75 C 44.363281 -35.78125 44.007812 -33.15625 43.90625 -29.875 Z M 61.171875 -29.875 "/></g></g></g><g fill="#ec00ff" fill-opacity="0.302"><g transform="translate(380.596576, 122.630609)"><g><path d="M 54.703125 -9.09375 C 55.691406 -9.09375 56.585938 -9.226562 57.390625 -9.5 C 58.191406 -9.78125 58.910156 -10.082031 59.546875 -10.40625 C 60.191406 -10.738281 60.722656 -11.039062 61.140625 -11.3125 C 61.554688 -11.59375 61.875 -11.734375 62.09375 -11.734375 C 62.425781 -11.734375 62.65625 -11.675781 62.78125 -11.5625 C 62.90625 -11.457031 63.0625 -11.257812 63.25 -10.96875 L 65.171875 -8 C 65.347656 -7.707031 65.4375 -7.453125 65.4375 -7.234375 C 65.4375 -6.972656 65.363281 -6.769531 65.21875 -6.625 C 65.070312 -6.476562 64.925781 -6.351562 64.78125 -6.25 C 63.570312 -5.40625 62.09375 -4.5 60.34375 -3.53125 C 58.59375 -2.5625 56.554688 -1.675781 54.234375 -0.875 C 51.910156 -0.0703125 49.285156 0.59375 46.359375 1.125 C 43.441406 1.65625 40.226562 1.921875 36.71875 1.921875 C 33.976562 1.921875 31.238281 1.703125 28.5 1.265625 C 25.757812 0.828125 23.132812 0.132812 20.625 -0.8125 C 18.125 -1.769531 15.796875 -3.015625 13.640625 -4.546875 C 11.484375 -6.078125 9.609375 -7.957031 8.015625 -10.1875 C 6.429688 -12.414062 5.179688 -15 4.265625 -17.9375 C 3.359375 -20.882812 2.90625 -24.257812 2.90625 -28.0625 C 2.90625 -31.789062 3.359375 -35.125 4.265625 -38.0625 C 5.179688 -41.007812 6.429688 -43.597656 8.015625 -45.828125 C 9.609375 -48.054688 11.484375 -49.945312 13.640625 -51.5 C 15.796875 -53.050781 18.125 -54.3125 20.625 -55.28125 C 23.132812 -56.25 25.757812 -56.953125 28.5 -57.390625 C 31.238281 -57.828125 33.976562 -58.046875 36.71875 -58.046875 C 41.289062 -58.046875 45.539062 -57.53125 49.46875 -56.5 C 53.394531 -55.476562 56.800781 -53.796875 59.6875 -51.453125 C 62.570312 -49.117188 64.835938 -46.050781 66.484375 -42.25 C 68.128906 -38.457031 68.953125 -33.800781 68.953125 -28.28125 L 68.953125 -25.21875 C 68.953125 -24.550781 68.785156 -24.035156 68.453125 -23.671875 C 68.128906 -23.304688 67.582031 -23.125 66.8125 -23.125 L 44.125 -23.125 C 44.414062 -20.425781 44.9375 -18.171875 45.6875 -16.359375 C 46.4375 -14.546875 47.296875 -13.097656 48.265625 -12.015625 C 49.234375 -10.941406 50.28125 -10.1875 51.40625 -9.75 C 52.539062 -9.3125 53.640625 -9.09375 54.703125 -9.09375 Z M 61.171875 -29.875 C 61.171875 -32.789062 60.941406 -35.207031 60.484375 -37.125 C 60.023438 -39.050781 59.410156 -40.585938 58.640625 -41.734375 C 57.878906 -42.890625 56.976562 -43.703125 55.9375 -44.171875 C 54.894531 -44.648438 53.804688 -44.890625 52.671875 -44.890625 C 51.828125 -44.890625 50.910156 -44.722656 49.921875 -44.390625 C 48.941406 -44.066406 48.019531 -43.375 47.15625 -42.3125 C 46.300781 -41.25 45.570312 -39.726562 44.96875 -37.75 C 44.363281 -35.78125 44.007812 -33.15625 43.90625 -29.875 Z M 61.171875 -29.875 "/></g></g></g><g fill="#ec00ff" fill-opacity="0.502"><g transform="translate(10.99813, 119.252802)"><g><path d="M 5.046875 -48.5 C 5.046875 -49.75 5.15625 -50.859375 5.375 -51.828125 C 5.59375 -52.796875 6.007812 -53.585938 6.625 -54.203125 C 7.25 -54.828125 8.109375 -55.300781 9.203125 -55.625 C 10.304688 -55.957031 11.734375 -56.125 13.484375 -56.125 L 37.484375 -56.125 C 39.171875 -56.125 40.535156 -55.96875 41.578125 -55.65625 C 42.617188 -55.34375 43.429688 -54.875 44.015625 -54.25 C 44.597656 -53.632812 44.976562 -52.851562 45.15625 -51.90625 C 45.34375 -50.957031 45.4375 -49.820312 45.4375 -48.5 L 45.4375 -7.515625 C 45.4375 -6.265625 45.34375 -5.171875 45.15625 -4.234375 C 44.976562 -3.304688 44.597656 -2.523438 44.015625 -1.890625 C 43.429688 -1.253906 42.617188 -0.78125 41.578125 -0.46875 C 40.535156 -0.15625 39.171875 0 37.484375 0 L 13.484375 0 C 11.734375 0 10.304688 -0.160156 9.203125 -0.484375 C 8.109375 -0.816406 7.25 -1.289062 6.625 -1.90625 C 6.007812 -2.53125 5.59375 -3.316406 5.375 -4.265625 C 5.15625 -5.222656 5.046875 -6.34375 5.046875 -7.625 Z M 7.078125 -79.578125 C 7.078125 -82.097656 7.554688 -84.472656 8.515625 -86.703125 C 9.484375 -88.929688 10.789062 -90.867188 12.4375 -92.515625 C 14.082031 -94.160156 16.019531 -95.46875 18.25 -96.4375 C 20.476562 -97.40625 22.851562 -97.890625 25.375 -97.890625 C 27.863281 -97.890625 30.210938 -97.40625 32.421875 -96.4375 C 34.628906 -95.46875 36.554688 -94.160156 38.203125 -92.515625 C 39.847656 -90.867188 41.15625 -88.929688 42.125 -86.703125 C 43.09375 -84.472656 43.578125 -82.097656 43.578125 -79.578125 C 43.578125 -77.097656 43.09375 -74.75 42.125 -72.53125 C 41.15625 -70.320312 39.847656 -68.394531 38.203125 -66.75 C 36.554688 -65.113281 34.628906 -63.8125 32.421875 -62.84375 C 30.210938 -61.875 27.863281 -61.390625 25.375 -61.390625 C 22.851562 -61.390625 20.476562 -61.875 18.25 -62.84375 C 16.019531 -63.8125 14.082031 -65.113281 12.4375 -66.75 C 10.789062 -68.394531 9.484375 -70.320312 8.515625 -72.53125 C 7.554688 -74.75 7.078125 -77.097656 7.078125 -79.578125 Z M 7.078125 -79.578125 "/></g></g></g><g fill="#ec00ff" fill-opacity="0.502"><g transform="translate(61.474228, 119.252802)"><g><path d="M 5.046875 -48.5 C 5.046875 -49.75 5.15625 -50.859375 5.375 -51.828125 C 5.59375 -52.796875 6.007812 -53.585938 6.625 -54.203125 C 7.25 -54.828125 8.109375 -55.300781 9.203125 -55.625 C 10.304688 -55.957031 11.734375 -56.125 13.484375 -56.125 L 35.90625 -56.125 C 37.539062 -56.125 38.953125 -55.957031 40.140625 -55.625 C 41.328125 -55.300781 42.179688 -54.738281 42.703125 -53.9375 C 43.171875 -54.257812 43.742188 -54.613281 44.421875 -55 C 45.097656 -55.382812 45.835938 -55.738281 46.640625 -56.0625 C 47.441406 -56.394531 48.300781 -56.671875 49.21875 -56.890625 C 50.132812 -57.109375 51.082031 -57.21875 52.0625 -57.21875 C 55.570312 -57.21875 58.304688 -56.007812 60.265625 -53.59375 C 62.222656 -51.1875 63.203125 -47.644531 63.203125 -42.96875 L 63.203125 -2.578125 C 63.203125 -1.953125 63.117188 -1.46875 62.953125 -1.125 C 62.785156 -0.78125 62.582031 -0.523438 62.34375 -0.359375 C 62.101562 -0.191406 61.816406 -0.0859375 61.484375 -0.046875 C 61.160156 -0.015625 60.835938 0 60.515625 0 L 57 0 C 56.050781 0 55.4375 -0.269531 55.15625 -0.8125 C 54.882812 -1.363281 54.75 -1.953125 54.75 -2.578125 L 54.75 -43.515625 C 54.75 -45.597656 54.375 -47.1875 53.625 -48.28125 C 52.875 -49.382812 51.679688 -49.9375 50.046875 -49.9375 C 49.203125 -49.9375 48.347656 -49.707031 47.484375 -49.25 C 46.628906 -48.789062 45.945312 -48.304688 45.4375 -47.796875 L 45.4375 -7.671875 C 45.4375 -6.390625 45.328125 -5.273438 45.109375 -4.328125 C 44.890625 -3.378906 44.46875 -2.582031 43.84375 -1.9375 C 43.226562 -1.300781 42.367188 -0.816406 41.265625 -0.484375 C 40.171875 -0.160156 38.75 0 37 0 L 13.484375 0 C 11.734375 0 10.304688 -0.160156 9.203125 -0.484375 C 8.109375 -0.816406 7.25 -1.289062 6.625 -1.90625 C 6.007812 -2.53125 5.59375 -3.316406 5.375 -4.265625 C 5.15625 -5.222656 5.046875 -6.34375 5.046875 -7.625 Z M 5.046875 -48.5 "/></g></g></g><g fill="#ec00ff" fill-opacity="0.502"><g transform="translate(129.707389, 119.252802)"><g><path d="M 44.015625 -32.34375 L 51.625 -52.890625 C 51.957031 -53.835938 52.316406 -54.613281 52.703125 -55.21875 C 53.085938 -55.820312 53.863281 -56.125 55.03125 -56.125 L 60.84375 -56.125 C 61.894531 -56.125 62.421875 -55.8125 62.421875 -55.1875 C 62.421875 -54.789062 62.222656 -54.132812 61.828125 -53.21875 L 40.828125 -3.734375 C 40.316406 -2.484375 39.738281 -1.546875 39.09375 -0.921875 C 38.457031 -0.304688 37.554688 0 36.390625 0 L 27.734375 0 C 26.960938 0 26.320312 -0.117188 25.8125 -0.359375 C 25.300781 -0.597656 24.867188 -0.898438 24.515625 -1.265625 C 24.171875 -1.628906 23.890625 -2.019531 23.671875 -2.4375 C 23.453125 -2.851562 23.269531 -3.25 23.125 -3.625 L 0.546875 -51.515625 C 0.222656 -52.210938 0.0625 -52.851562 0.0625 -53.4375 C 0.0625 -54.382812 0.40625 -55.066406 1.09375 -55.484375 C 1.789062 -55.910156 2.503906 -56.125 3.234375 -56.125 L 29.984375 -56.125 C 30.890625 -56.125 31.65625 -56.085938 32.28125 -56.015625 C 32.90625 -55.941406 33.414062 -55.800781 33.8125 -55.59375 C 34.21875 -55.394531 34.546875 -55.148438 34.796875 -54.859375 C 35.054688 -54.566406 35.28125 -54.203125 35.46875 -53.765625 Z M 44.015625 -32.34375 "/></g></g></g><g fill="#ec00ff" fill-opacity="0.502"><g transform="translate(192.185947, 119.252802)"><g><path d="M 5.046875 -48.5 C 5.046875 -49.75 5.15625 -50.859375 5.375 -51.828125 C 5.59375 -52.796875 6.007812 -53.585938 6.625 -54.203125 C 7.25 -54.828125 8.109375 -55.300781 9.203125 -55.625 C 10.304688 -55.957031 11.734375 -56.125 13.484375 -56.125 L 37.484375 -56.125 C 39.171875 -56.125 40.535156 -55.96875 41.578125 -55.65625 C 42.617188 -55.34375 43.429688 -54.875 44.015625 -54.25 C 44.597656 -53.632812 44.976562 -52.851562 45.15625 -51.90625 C 45.34375 -50.957031 45.4375 -49.820312 45.4375 -48.5 L 45.4375 -7.515625 C 45.4375 -6.265625 45.34375 -5.171875 45.15625 -4.234375 C 44.976562 -3.304688 44.597656 -2.523438 44.015625 -1.890625 C 43.429688 -1.253906 42.617188 -0.78125 41.578125 -0.46875 C 40.535156 -0.15625 39.171875 0 37.484375 0 L 13.484375 0 C 11.734375 0 10.304688 -0.160156 9.203125 -0.484375 C 8.109375 -0.816406 7.25 -1.289062 6.625 -1.90625 C 6.007812 -2.53125 5.59375 -3.316406 5.375 -4.265625 C 5.15625 -5.222656 5.046875 -6.34375 5.046875 -7.625 Z M 7.078125 -79.578125 C 7.078125 -82.097656 7.554688 -84.472656 8.515625 -86.703125 C 9.484375 -88.929688 10.789062 -90.867188 12.4375 -92.515625 C 14.082031 -94.160156 16.019531 -95.46875 18.25 -96.4375 C 20.476562 -97.40625 22.851562 -97.890625 25.375 -97.890625 C 27.863281 -97.890625 30.210938 -97.40625 32.421875 -96.4375 C 34.628906 -95.46875 36.554688 -94.160156 38.203125 -92.515625 C 39.847656 -90.867188 41.15625 -88.929688 42.125 -86.703125 C 43.09375 -84.472656 43.578125 -82.097656 43.578125 -79.578125 C 43.578125 -77.097656 43.09375 -74.75 42.125 -72.53125 C 41.15625 -70.320312 39.847656 -68.394531 38.203125 -66.75 C 36.554688 -65.113281 34.628906 -63.8125 32.421875 -62.84375 C 30.210938 -61.875 27.863281 -61.390625 25.375 -61.390625 C 22.851562 -61.390625 20.476562 -61.875 18.25 -62.84375 C 16.019531 -63.8125 14.082031 -65.113281 12.4375 -66.75 C 10.789062 -68.394531 9.484375 -70.320312 8.515625 -72.53125 C 7.554688 -74.75 7.078125 -77.097656 7.078125 -79.578125 Z M 7.078125 -79.578125 "/></g></g></g><g fill="#ec00ff" fill-opacity="0.502"><g transform="translate(242.662057, 119.252802)"><g><path d="M 1.15625 -38.140625 C 0.382812 -38.140625 0 -38.546875 0 -39.359375 L 0 -43.734375 C 0 -44.503906 0.382812 -44.890625 1.15625 -44.890625 L 6.84375 -44.890625 L 6.84375 -57.328125 C 6.84375 -57.878906 6.925781 -58.425781 7.09375 -58.96875 C 7.257812 -59.519531 7.707031 -59.941406 8.4375 -60.234375 L 38.703125 -71.421875 C 40.085938 -71.929688 41.234375 -72.3125 42.140625 -72.5625 C 43.054688 -72.820312 43.863281 -72.953125 44.5625 -72.953125 C 44.8125 -72.953125 45.09375 -72.90625 45.40625 -72.8125 C 45.71875 -72.71875 46.007812 -72.5625 46.28125 -72.34375 C 46.5625 -72.125 46.789062 -71.820312 46.96875 -71.4375 C 47.15625 -71.0625 47.25 -70.597656 47.25 -70.046875 L 47.25 -44.890625 L 57.109375 -44.890625 C 57.878906 -44.890625 58.265625 -44.503906 58.265625 -43.734375 L 58.265625 -39.359375 C 58.265625 -38.546875 57.878906 -38.140625 57.109375 -38.140625 L 47.25 -38.140625 L 47.25 -16.0625 C 47.25 -13.46875 47.675781 -11.640625 48.53125 -10.578125 C 49.394531 -9.515625 50.71875 -8.984375 52.5 -8.984375 C 52.90625 -8.984375 53.328125 -9.03125 53.765625 -9.125 C 54.203125 -9.21875 54.613281 -9.304688 55 -9.390625 C 55.382812 -9.484375 55.738281 -9.578125 56.0625 -9.671875 C 56.394531 -9.765625 56.671875 -9.8125 56.890625 -9.8125 C 57.296875 -9.8125 57.5 -9.570312 57.5 -9.09375 L 57.5 -4.875 C 57.5 -4.144531 57.351562 -3.648438 57.0625 -3.390625 C 56.769531 -3.140625 56.515625 -2.976562 56.296875 -2.90625 C 54.898438 -2.320312 53.257812 -1.738281 51.375 -1.15625 C 49.5 -0.570312 47.472656 -0.0507812 45.296875 0.40625 C 43.117188 0.863281 40.820312 1.226562 38.40625 1.5 C 36 1.78125 33.59375 1.921875 31.1875 1.921875 C 27.71875 1.921875 24.492188 1.742188 21.515625 1.390625 C 18.535156 1.046875 15.957031 0.253906 13.78125 -0.984375 C 11.613281 -2.222656 9.914062 -4.066406 8.6875 -6.515625 C 7.457031 -8.960938 6.84375 -12.289062 6.84375 -16.5 L 6.84375 -38.140625 Z M 1.15625 -38.140625 "/></g></g></g><g fill="#ec00ff" fill-opacity="0.502"><g transform="translate(304.263722, 119.252802)"><g><path d="M 54.703125 -9.09375 C 55.691406 -9.09375 56.585938 -9.226562 57.390625 -9.5 C 58.191406 -9.78125 58.910156 -10.082031 59.546875 -10.40625 C 60.191406 -10.738281 60.722656 -11.039062 61.140625 -11.3125 C 61.554688 -11.59375 61.875 -11.734375 62.09375 -11.734375 C 62.425781 -11.734375 62.65625 -11.675781 62.78125 -11.5625 C 62.90625 -11.457031 63.0625 -11.257812 63.25 -10.96875 L 65.171875 -8 C 65.347656 -7.707031 65.4375 -7.453125 65.4375 -7.234375 C 65.4375 -6.972656 65.363281 -6.769531 65.21875 -6.625 C 65.070312 -6.476562 64.925781 -6.351562 64.78125 -6.25 C 63.570312 -5.40625 62.09375 -4.5 60.34375 -3.53125 C 58.59375 -2.5625 56.554688 -1.675781 54.234375 -0.875 C 51.910156 -0.0703125 49.285156 0.59375 46.359375 1.125 C 43.441406 1.65625 40.226562 1.921875 36.71875 1.921875 C 33.976562 1.921875 31.238281 1.703125 28.5 1.265625 C 25.757812 0.828125 23.132812 0.132812 20.625 -0.8125 C 18.125 -1.769531 15.796875 -3.015625 13.640625 -4.546875 C 11.484375 -6.078125 9.609375 -7.957031 8.015625 -10.1875 C 6.429688 -12.414062 5.179688 -15 4.265625 -17.9375 C 3.359375 -20.882812 2.90625 -24.257812 2.90625 -28.0625 C 2.90625 -31.789062 3.359375 -35.125 4.265625 -38.0625 C 5.179688 -41.007812 6.429688 -43.597656 8.015625 -45.828125 C 9.609375 -48.054688 11.484375 -49.945312 13.640625 -51.5 C 15.796875 -53.050781 18.125 -54.3125 20.625 -55.28125 C 23.132812 -56.25 25.757812 -56.953125 28.5 -57.390625 C 31.238281 -57.828125 33.976562 -58.046875 36.71875 -58.046875 C 41.289062 -58.046875 45.539062 -57.53125 49.46875 -56.5 C 53.394531 -55.476562 56.800781 -53.796875 59.6875 -51.453125 C 62.570312 -49.117188 64.835938 -46.050781 66.484375 -42.25 C 68.128906 -38.457031 68.953125 -33.800781 68.953125 -28.28125 L 68.953125 -25.21875 C 68.953125 -24.550781 68.785156 -24.035156 68.453125 -23.671875 C 68.128906 -23.304688 67.582031 -23.125 66.8125 -23.125 L 44.125 -23.125 C 44.414062 -20.425781 44.9375 -18.171875 45.6875 -16.359375 C 46.4375 -14.546875 47.296875 -13.097656 48.265625 -12.015625 C 49.234375 -10.941406 50.28125 -10.1875 51.40625 -9.75 C 52.539062 -9.3125 53.640625 -9.09375 54.703125 -9.09375 Z M 61.171875 -29.875 C 61.171875 -32.789062 60.941406 -35.207031 60.484375 -37.125 C 60.023438 -39.050781 59.410156 -40.585938 58.640625 -41.734375 C 57.878906 -42.890625 56.976562 -43.703125 55.9375 -44.171875 C 54.894531 -44.648438 53.804688 -44.890625 52.671875 -44.890625 C 51.828125 -44.890625 50.910156 -44.722656 49.921875 -44.390625 C 48.941406 -44.066406 48.019531 -43.375 47.15625 -42.3125 C 46.300781 -41.25 45.570312 -39.726562 44.96875 -37.75 C 44.363281 -35.78125 44.007812 -33.15625 43.90625 -29.875 Z M 61.171875 -29.875 "/></g></g></g><g fill="#ec00ff" fill-opacity="0.502"><g transform="translate(376.114075, 119.252802)"><g><path d="M 54.703125 -9.09375 C 55.691406 -9.09375 56.585938 -9.226562 57.390625 -9.5 C 58.191406 -9.78125 58.910156 -10.082031 59.546875 -10.40625 C 60.191406 -10.738281 60.722656 -11.039062 61.140625 -11.3125 C 61.554688 -11.59375 61.875 -11.734375 62.09375 -11.734375 C 62.425781 -11.734375 62.65625 -11.675781 62.78125 -11.5625 C 62.90625 -11.457031 63.0625 -11.257812 63.25 -10.96875 L 65.171875 -8 C 65.347656 -7.707031 65.4375 -7.453125 65.4375 -7.234375 C 65.4375 -6.972656 65.363281 -6.769531 65.21875 -6.625 C 65.070312 -6.476562 64.925781 -6.351562 64.78125 -6.25 C 63.570312 -5.40625 62.09375 -4.5 60.34375 -3.53125 C 58.59375 -2.5625 56.554688 -1.675781 54.234375 -0.875 C 51.910156 -0.0703125 49.285156 0.59375 46.359375 1.125 C 43.441406 1.65625 40.226562 1.921875 36.71875 1.921875 C 33.976562 1.921875 31.238281 1.703125 28.5 1.265625 C 25.757812 0.828125 23.132812 0.132812 20.625 -0.8125 C 18.125 -1.769531 15.796875 -3.015625 13.640625 -4.546875 C 11.484375 -6.078125 9.609375 -7.957031 8.015625 -10.1875 C 6.429688 -12.414062 5.179688 -15 4.265625 -17.9375 C 3.359375 -20.882812 2.90625 -24.257812 2.90625 -28.0625 C 2.90625 -31.789062 3.359375 -35.125 4.265625 -38.0625 C 5.179688 -41.007812 6.429688 -43.597656 8.015625 -45.828125 C 9.609375 -48.054688 11.484375 -49.945312 13.640625 -51.5 C 15.796875 -53.050781 18.125 -54.3125 20.625 -55.28125 C 23.132812 -56.25 25.757812 -56.953125 28.5 -57.390625 C 31.238281 -57.828125 33.976562 -58.046875 36.71875 -58.046875 C 41.289062 -58.046875 45.539062 -57.53125 49.46875 -56.5 C 53.394531 -55.476562 56.800781 -53.796875 59.6875 -51.453125 C 62.570312 -49.117188 64.835938 -46.050781 66.484375 -42.25 C 68.128906 -38.457031 68.953125 -33.800781 68.953125 -28.28125 L 68.953125 -25.21875 C 68.953125 -24.550781 68.785156 -24.035156 68.453125 -23.671875 C 68.128906 -23.304688 67.582031 -23.125 66.8125 -23.125 L 44.125 -23.125 C 44.414062 -20.425781 44.9375 -18.171875 45.6875 -16.359375 C 46.4375 -14.546875 47.296875 -13.097656 48.265625 -12.015625 C 49.234375 -10.941406 50.28125 -10.1875 51.40625 -9.75 C 52.539062 -9.3125 53.640625 -9.09375 54.703125 -9.09375 Z M 61.171875 -29.875 C 61.171875 -32.789062 60.941406 -35.207031 60.484375 -37.125 C 60.023438 -39.050781 59.410156 -40.585938 58.640625 -41.734375 C 57.878906 -42.890625 56.976562 -43.703125 55.9375 -44.171875 C 54.894531 -44.648438 53.804688 -44.890625 52.671875 -44.890625 C 51.828125 -44.890625 50.910156 -44.722656 49.921875 -44.390625 C 48.941406 -44.066406 48.019531 -43.375 47.15625 -42.3125 C 46.300781 -41.25 45.570312 -39.726562 44.96875 -37.75 C 44.363281 -35.78125 44.007812 -33.15625 43.90625 -29.875 Z M 61.171875 -29.875 "/></g></g></g><g fill="#fffd47" fill-opacity="1"><g transform="translate(6.515628, 115.874995)"><g><path d="M 5.046875 -48.5 C 5.046875 -49.75 5.15625 -50.859375 5.375 -51.828125 C 5.59375 -52.796875 6.007812 -53.585938 6.625 -54.203125 C 7.25 -54.828125 8.109375 -55.300781 9.203125 -55.625 C 10.304688 -55.957031 11.734375 -56.125 13.484375 -56.125 L 37.484375 -56.125 C 39.171875 -56.125 40.535156 -55.96875 41.578125 -55.65625 C 42.617188 -55.34375 43.429688 -54.875 44.015625 -54.25 C 44.597656 -53.632812 44.976562 -52.851562 45.15625 -51.90625 C 45.34375 -50.957031 45.4375 -49.820312 45.4375 -48.5 L 45.4375 -7.515625 C 45.4375 -6.265625 45.34375 -5.171875 45.15625 -4.234375 C 44.976562 -3.304688 44.597656 -2.523438 44.015625 -1.890625 C 43.429688 -1.253906 42.617188 -0.78125 41.578125 -0.46875 C 40.535156 -0.15625 39.171875 0 37.484375 0 L 13.484375 0 C 11.734375 0 10.304688 -0.160156 9.203125 -0.484375 C 8.109375 -0.816406 7.25 -1.289062 6.625 -1.90625 C 6.007812 -2.53125 5.59375 -3.316406 5.375 -4.265625 C 5.15625 -5.222656 5.046875 -6.34375 5.046875 -7.625 Z M 7.078125 -79.578125 C 7.078125 -82.097656 7.554688 -84.472656 8.515625 -86.703125 C 9.484375 -88.929688 10.789062 -90.867188 12.4375 -92.515625 C 14.082031 -94.160156 16.019531 -95.46875 18.25 -96.4375 C 20.476562 -97.40625 22.851562 -97.890625 25.375 -97.890625 C 27.863281 -97.890625 30.210938 -97.40625 32.421875 -96.4375 C 34.628906 -95.46875 36.554688 -94.160156 38.203125 -92.515625 C 39.847656 -90.867188 41.15625 -88.929688 42.125 -86.703125 C 43.09375 -84.472656 43.578125 -82.097656 43.578125 -79.578125 C 43.578125 -77.097656 43.09375 -74.75 42.125 -72.53125 C 41.15625 -70.320312 39.847656 -68.394531 38.203125 -66.75 C 36.554688 -65.113281 34.628906 -63.8125 32.421875 -62.84375 C 30.210938 -61.875 27.863281 -61.390625 25.375 -61.390625 C 22.851562 -61.390625 20.476562 -61.875 18.25 -62.84375 C 16.019531 -63.8125 14.082031 -65.113281 12.4375 -66.75 C 10.789062 -68.394531 9.484375 -70.320312 8.515625 -72.53125 C 7.554688 -74.75 7.078125 -77.097656 7.078125 -79.578125 Z M 7.078125 -79.578125 "/></g></g></g><g fill="#fffd47" fill-opacity="1"><g transform="translate(56.991726, 115.874995)"><g><path d="M 5.046875 -48.5 C 5.046875 -49.75 5.15625 -50.859375 5.375 -51.828125 C 5.59375 -52.796875 6.007812 -53.585938 6.625 -54.203125 C 7.25 -54.828125 8.109375 -55.300781 9.203125 -55.625 C 10.304688 -55.957031 11.734375 -56.125 13.484375 -56.125 L 35.90625 -56.125 C 37.539062 -56.125 38.953125 -55.957031 40.140625 -55.625 C 41.328125 -55.300781 42.179688 -54.738281 42.703125 -53.9375 C 43.171875 -54.257812 43.742188 -54.613281 44.421875 -55 C 45.097656 -55.382812 45.835938 -55.738281 46.640625 -56.0625 C 47.441406 -56.394531 48.300781 -56.671875 49.21875 -56.890625 C 50.132812 -57.109375 51.082031 -57.21875 52.0625 -57.21875 C 55.570312 -57.21875 58.304688 -56.007812 60.265625 -53.59375 C 62.222656 -51.1875 63.203125 -47.644531 63.203125 -42.96875 L 63.203125 -2.578125 C 63.203125 -1.953125 63.117188 -1.46875 62.953125 -1.125 C 62.785156 -0.78125 62.582031 -0.523438 62.34375 -0.359375 C 62.101562 -0.191406 61.816406 -0.0859375 61.484375 -0.046875 C 61.160156 -0.015625 60.835938 0 60.515625 0 L 57 0 C 56.050781 0 55.4375 -0.269531 55.15625 -0.8125 C 54.882812 -1.363281 54.75 -1.953125 54.75 -2.578125 L 54.75 -43.515625 C 54.75 -45.597656 54.375 -47.1875 53.625 -48.28125 C 52.875 -49.382812 51.679688 -49.9375 50.046875 -49.9375 C 49.203125 -49.9375 48.347656 -49.707031 47.484375 -49.25 C 46.628906 -48.789062 45.945312 -48.304688 45.4375 -47.796875 L 45.4375 -7.671875 C 45.4375 -6.390625 45.328125 -5.273438 45.109375 -4.328125 C 44.890625 -3.378906 44.46875 -2.582031 43.84375 -1.9375 C 43.226562 -1.300781 42.367188 -0.816406 41.265625 -0.484375 C 40.171875 -0.160156 38.75 0 37 0 L 13.484375 0 C 11.734375 0 10.304688 -0.160156 9.203125 -0.484375 C 8.109375 -0.816406 7.25 -1.289062 6.625 -1.90625 C 6.007812 -2.53125 5.59375 -3.316406 5.375 -4.265625 C 5.15625 -5.222656 5.046875 -6.34375 5.046875 -7.625 Z M 5.046875 -48.5 "/></g></g></g><g fill="#fffd47" fill-opacity="1"><g transform="translate(125.224888, 115.874995)"><g><path d="M 44.015625 -32.34375 L 51.625 -52.890625 C 51.957031 -53.835938 52.316406 -54.613281 52.703125 -55.21875 C 53.085938 -55.820312 53.863281 -56.125 55.03125 -56.125 L 60.84375 -56.125 C 61.894531 -56.125 62.421875 -55.8125 62.421875 -55.1875 C 62.421875 -54.789062 62.222656 -54.132812 61.828125 -53.21875 L 40.828125 -3.734375 C 40.316406 -2.484375 39.738281 -1.546875 39.09375 -0.921875 C 38.457031 -0.304688 37.554688 0 36.390625 0 L 27.734375 0 C 26.960938 0 26.320312 -0.117188 25.8125 -0.359375 C 25.300781 -0.597656 24.867188 -0.898438 24.515625 -1.265625 C 24.171875 -1.628906 23.890625 -2.019531 23.671875 -2.4375 C 23.453125 -2.851562 23.269531 -3.25 23.125 -3.625 L 0.546875 -51.515625 C 0.222656 -52.210938 0.0625 -52.851562 0.0625 -53.4375 C 0.0625 -54.382812 0.40625 -55.066406 1.09375 -55.484375 C 1.789062 -55.910156 2.503906 -56.125 3.234375 -56.125 L 29.984375 -56.125 C 30.890625 -56.125 31.65625 -56.085938 32.28125 -56.015625 C 32.90625 -55.941406 33.414062 -55.800781 33.8125 -55.59375 C 34.21875 -55.394531 34.546875 -55.148438 34.796875 -54.859375 C 35.054688 -54.566406 35.28125 -54.203125 35.46875 -53.765625 Z M 44.015625 -32.34375 "/></g></g></g><g fill="#fffd47" fill-opacity="1"><g transform="translate(187.703446, 115.874995)"><g><path d="M 5.046875 -48.5 C 5.046875 -49.75 5.15625 -50.859375 5.375 -51.828125 C 5.59375 -52.796875 6.007812 -53.585938 6.625 -54.203125 C 7.25 -54.828125 8.109375 -55.300781 9.203125 -55.625 C 10.304688 -55.957031 11.734375 -56.125 13.484375 -56.125 L 37.484375 -56.125 C 39.171875 -56.125 40.535156 -55.96875 41.578125 -55.65625 C 42.617188 -55.34375 43.429688 -54.875 44.015625 -54.25 C 44.597656 -53.632812 44.976562 -52.851562 45.15625 -51.90625 C 45.34375 -50.957031 45.4375 -49.820312 45.4375 -48.5 L 45.4375 -7.515625 C 45.4375 -6.265625 45.34375 -5.171875 45.15625 -4.234375 C 44.976562 -3.304688 44.597656 -2.523438 44.015625 -1.890625 C 43.429688 -1.253906 42.617188 -0.78125 41.578125 -0.46875 C 40.535156 -0.15625 39.171875 0 37.484375 0 L 13.484375 0 C 11.734375 0 10.304688 -0.160156 9.203125 -0.484375 C 8.109375 -0.816406 7.25 -1.289062 6.625 -1.90625 C 6.007812 -2.53125 5.59375 -3.316406 5.375 -4.265625 C 5.15625 -5.222656 5.046875 -6.34375 5.046875 -7.625 Z M 7.078125 -79.578125 C 7.078125 -82.097656 7.554688 -84.472656 8.515625 -86.703125 C 9.484375 -88.929688 10.789062 -90.867188 12.4375 -92.515625 C 14.082031 -94.160156 16.019531 -95.46875 18.25 -96.4375 C 20.476562 -97.40625 22.851562 -97.890625 25.375 -97.890625 C 27.863281 -97.890625 30.210938 -97.40625 32.421875 -96.4375 C 34.628906 -95.46875 36.554688 -94.160156 38.203125 -92.515625 C 39.847656 -90.867188 41.15625 -88.929688 42.125 -86.703125 C 43.09375 -84.472656 43.578125 -82.097656 43.578125 -79.578125 C 43.578125 -77.097656 43.09375 -74.75 42.125 -72.53125 C 41.15625 -70.320312 39.847656 -68.394531 38.203125 -66.75 C 36.554688 -65.113281 34.628906 -63.8125 32.421875 -62.84375 C 30.210938 -61.875 27.863281 -61.390625 25.375 -61.390625 C 22.851562 -61.390625 20.476562 -61.875 18.25 -62.84375 C 16.019531 -63.8125 14.082031 -65.113281 12.4375 -66.75 C 10.789062 -68.394531 9.484375 -70.320312 8.515625 -72.53125 C 7.554688 -74.75 7.078125 -77.097656 7.078125 -79.578125 Z M 7.078125 -79.578125 "/></g></g></g><g fill="#fffd47" fill-opacity="1"><g transform="translate(238.179555, 115.874995)"><g><path d="M 1.15625 -38.140625 C 0.382812 -38.140625 0 -38.546875 0 -39.359375 L 0 -43.734375 C 0 -44.503906 0.382812 -44.890625 1.15625 -44.890625 L 6.84375 -44.890625 L 6.84375 -57.328125 C 6.84375 -57.878906 6.925781 -58.425781 7.09375 -58.96875 C 7.257812 -59.519531 7.707031 -59.941406 8.4375 -60.234375 L 38.703125 -71.421875 C 40.085938 -71.929688 41.234375 -72.3125 42.140625 -72.5625 C 43.054688 -72.820312 43.863281 -72.953125 44.5625 -72.953125 C 44.8125 -72.953125 45.09375 -72.90625 45.40625 -72.8125 C 45.71875 -72.71875 46.007812 -72.5625 46.28125 -72.34375 C 46.5625 -72.125 46.789062 -71.820312 46.96875 -71.4375 C 47.15625 -71.0625 47.25 -70.597656 47.25 -70.046875 L 47.25 -44.890625 L 57.109375 -44.890625 C 57.878906 -44.890625 58.265625 -44.503906 58.265625 -43.734375 L 58.265625 -39.359375 C 58.265625 -38.546875 57.878906 -38.140625 57.109375 -38.140625 L 47.25 -38.140625 L 47.25 -16.0625 C 47.25 -13.46875 47.675781 -11.640625 48.53125 -10.578125 C 49.394531 -9.515625 50.71875 -8.984375 52.5 -8.984375 C 52.90625 -8.984375 53.328125 -9.03125 53.765625 -9.125 C 54.203125 -9.21875 54.613281 -9.304688 55 -9.390625 C 55.382812 -9.484375 55.738281 -9.578125 56.0625 -9.671875 C 56.394531 -9.765625 56.671875 -9.8125 56.890625 -9.8125 C 57.296875 -9.8125 57.5 -9.570312 57.5 -9.09375 L 57.5 -4.875 C 57.5 -4.144531 57.351562 -3.648438 57.0625 -3.390625 C 56.769531 -3.140625 56.515625 -2.976562 56.296875 -2.90625 C 54.898438 -2.320312 53.257812 -1.738281 51.375 -1.15625 C 49.5 -0.570312 47.472656 -0.0507812 45.296875 0.40625 C 43.117188 0.863281 40.820312 1.226562 38.40625 1.5 C 36 1.78125 33.59375 1.921875 31.1875 1.921875 C 27.71875 1.921875 24.492188 1.742188 21.515625 1.390625 C 18.535156 1.046875 15.957031 0.253906 13.78125 -0.984375 C 11.613281 -2.222656 9.914062 -4.066406 8.6875 -6.515625 C 7.457031 -8.960938 6.84375 -12.289062 6.84375 -16.5 L 6.84375 -38.140625 Z M 1.15625 -38.140625 "/></g></g></g><g fill="#fffd47" fill-opacity="1"><g transform="translate(299.781221, 115.874995)"><g><path d="M 54.703125 -9.09375 C 55.691406 -9.09375 56.585938 -9.226562 57.390625 -9.5 C 58.191406 -9.78125 58.910156 -10.082031 59.546875 -10.40625 C 60.191406 -10.738281 60.722656 -11.039062 61.140625 -11.3125 C 61.554688 -11.59375 61.875 -11.734375 62.09375 -11.734375 C 62.425781 -11.734375 62.65625 -11.675781 62.78125 -11.5625 C 62.90625 -11.457031 63.0625 -11.257812 63.25 -10.96875 L 65.171875 -8 C 65.347656 -7.707031 65.4375 -7.453125 65.4375 -7.234375 C 65.4375 -6.972656 65.363281 -6.769531 65.21875 -6.625 C 65.070312 -6.476562 64.925781 -6.351562 64.78125 -6.25 C 63.570312 -5.40625 62.09375 -4.5 60.34375 -3.53125 C 58.59375 -2.5625 56.554688 -1.675781 54.234375 -0.875 C 51.910156 -0.0703125 49.285156 0.59375 46.359375 1.125 C 43.441406 1.65625 40.226562 1.921875 36.71875 1.921875 C 33.976562 1.921875 31.238281 1.703125 28.5 1.265625 C 25.757812 0.828125 23.132812 0.132812 20.625 -0.8125 C 18.125 -1.769531 15.796875 -3.015625 13.640625 -4.546875 C 11.484375 -6.078125 9.609375 -7.957031 8.015625 -10.1875 C 6.429688 -12.414062 5.179688 -15 4.265625 -17.9375 C 3.359375 -20.882812 2.90625 -24.257812 2.90625 -28.0625 C 2.90625 -31.789062 3.359375 -35.125 4.265625 -38.0625 C 5.179688 -41.007812 6.429688 -43.597656 8.015625 -45.828125 C 9.609375 -48.054688 11.484375 -49.945312 13.640625 -51.5 C 15.796875 -53.050781 18.125 -54.3125 20.625 -55.28125 C 23.132812 -56.25 25.757812 -56.953125 28.5 -57.390625 C 31.238281 -57.828125 33.976562 -58.046875 36.71875 -58.046875 C 41.289062 -58.046875 45.539062 -57.53125 49.46875 -56.5 C 53.394531 -55.476562 56.800781 -53.796875 59.6875 -51.453125 C 62.570312 -49.117188 64.835938 -46.050781 66.484375 -42.25 C 68.128906 -38.457031 68.953125 -33.800781 68.953125 -28.28125 L 68.953125 -25.21875 C 68.953125 -24.550781 68.785156 -24.035156 68.453125 -23.671875 C 68.128906 -23.304688 67.582031 -23.125 66.8125 -23.125 L 44.125 -23.125 C 44.414062 -20.425781 44.9375 -18.171875 45.6875 -16.359375 C 46.4375 -14.546875 47.296875 -13.097656 48.265625 -12.015625 C 49.234375 -10.941406 50.28125 -10.1875 51.40625 -9.75 C 52.539062 -9.3125 53.640625 -9.09375 54.703125 -9.09375 Z M 61.171875 -29.875 C 61.171875 -32.789062 60.941406 -35.207031 60.484375 -37.125 C 60.023438 -39.050781 59.410156 -40.585938 58.640625 -41.734375 C 57.878906 -42.890625 56.976562 -43.703125 55.9375 -44.171875 C 54.894531 -44.648438 53.804688 -44.890625 52.671875 -44.890625 C 51.828125 -44.890625 50.910156 -44.722656 49.921875 -44.390625 C 48.941406 -44.066406 48.019531 -43.375 47.15625 -42.3125 C 46.300781 -41.25 45.570312 -39.726562 44.96875 -37.75 C 44.363281 -35.78125 44.007812 -33.15625 43.90625 -29.875 Z M 61.171875 -29.875 "/></g></g></g><g fill="#fffd47" fill-opacity="1"><g transform="translate(371.631574, 115.874995)"><g><path d="M 54.703125 -9.09375 C 55.691406 -9.09375 56.585938 -9.226562 57.390625 -9.5 C 58.191406 -9.78125 58.910156 -10.082031 59.546875 -10.40625 C 60.191406 -10.738281 60.722656 -11.039062 61.140625 -11.3125 C 61.554688 -11.59375 61.875 -11.734375 62.09375 -11.734375 C 62.425781 -11.734375 62.65625 -11.675781 62.78125 -11.5625 C 62.90625 -11.457031 63.0625 -11.257812 63.25 -10.96875 L 65.171875 -8 C 65.347656 -7.707031 65.4375 -7.453125 65.4375 -7.234375 C 65.4375 -6.972656 65.363281 -6.769531 65.21875 -6.625 C 65.070312 -6.476562 64.925781 -6.351562 64.78125 -6.25 C 63.570312 -5.40625 62.09375 -4.5 60.34375 -3.53125 C 58.59375 -2.5625 56.554688 -1.675781 54.234375 -0.875 C 51.910156 -0.0703125 49.285156 0.59375 46.359375 1.125 C 43.441406 1.65625 40.226562 1.921875 36.71875 1.921875 C 33.976562 1.921875 31.238281 1.703125 28.5 1.265625 C 25.757812 0.828125 23.132812 0.132812 20.625 -0.8125 C 18.125 -1.769531 15.796875 -3.015625 13.640625 -4.546875 C 11.484375 -6.078125 9.609375 -7.957031 8.015625 -10.1875 C 6.429688 -12.414062 5.179688 -15 4.265625 -17.9375 C 3.359375 -20.882812 2.90625 -24.257812 2.90625 -28.0625 C 2.90625 -31.789062 3.359375 -35.125 4.265625 -38.0625 C 5.179688 -41.007812 6.429688 -43.597656 8.015625 -45.828125 C 9.609375 -48.054688 11.484375 -49.945312 13.640625 -51.5 C 15.796875 -53.050781 18.125 -54.3125 20.625 -55.28125 C 23.132812 -56.25 25.757812 -56.953125 28.5 -57.390625 C 31.238281 -57.828125 33.976562 -58.046875 36.71875 -58.046875 C 41.289062 -58.046875 45.539062 -57.53125 49.46875 -56.5 C 53.394531 -55.476562 56.800781 -53.796875 59.6875 -51.453125 C 62.570312 -49.117188 64.835938 -46.050781 66.484375 -42.25 C 68.128906 -38.457031 68.953125 -33.800781 68.953125 -28.28125 L 68.953125 -25.21875 C 68.953125 -24.550781 68.785156 -24.035156 68.453125 -23.671875 C 68.128906 -23.304688 67.582031 -23.125 66.8125 -23.125 L 44.125 -23.125 C 44.414062 -20.425781 44.9375 -18.171875 45.6875 -16.359375 C 46.4375 -14.546875 47.296875 -13.097656 48.265625 -12.015625 C 49.234375 -10.941406 50.28125 -10.1875 51.40625 -9.75 C 52.539062 -9.3125 53.640625 -9.09375 54.703125 -9.09375 Z M 61.171875 -29.875 C 61.171875 -32.789062 60.941406 -35.207031 60.484375 -37.125 C 60.023438 -39.050781 59.410156 -40.585938 58.640625 -41.734375 C 57.878906 -42.890625 56.976562 -43.703125 55.9375 -44.171875 C 54.894531 -44.648438 53.804688 -44.890625 52.671875 -44.890625 C 51.828125 -44.890625 50.910156 -44.722656 49.921875 -44.390625 C 48.941406 -44.066406 48.019531 -43.375 47.15625 -42.3125 C 46.300781 -41.25 45.570312 -39.726562 44.96875 -37.75 C 44.363281 -35.78125 44.007812 -33.15625 43.90625 -29.875 Z M 61.171875 -29.875 "/></g></g></g></svg>